# File produced by Open Asset Import Library (http://www.assimp.sf.net)
# (assimp v3.1.193236683)

mtllib snake_tailw.mtl

# 108 vertex positions
v  0.698961 -0.348961 0.479329
v  0.622003 0.0303106 0.324105
v  0.509254 -0.0166092 0.573791
v  -0.698236 -0.34994 0.479495
v  -0.508646 -0.0168319 0.573151
v  -0.621187 0.0298352 0.324489
v  0.000468865 0.51701 -0.148003
v  -0.18265 0.505569 0.16902
v  0.000468865 0.584116 0.0666876
v  0.195438 0.504945 0.150145
v  0.701959 -0.417481 -0.0081749
v  0.000468865 -0.548268 -0.390355
v  0.685038 -0.481781 -0.533883
v  0.000468865 -0.494732 -0.893049
v  -0.483586 -0.490228 -0.84376
v  0.000468865 0.348982 -0.912412
v  -0.129851 -0.141862 -0.928504
v  -0.433689 -0.0951819 -0.871572
v  0.436095 -0.0983424 -0.871903
v  0.137061 -0.161883 -0.927829
v  0.259482 0.378381 -0.587172
v  0.317107 0.19788 -0.781845
v  0.592811 0.16559 -0.138567
v  0.559755 0.0267577 -0.0250041
v  0.743859 -0.245295 -0.0806577
v  -0.258376 0.378537 -0.586782
v  -0.318379 0.196093 -0.781579
v  -0.558833 0.0263557 -0.0253186
v  -0.591712 0.16501 -0.138676
v  -0.743859 -0.248414 -0.0780406
v  -0.585 -0.14605 0.126083
v  -0.725437 -0.476986 0.359398
v  0.72653 -0.47667 0.360418
v  0.586081 -0.146455 0.126943
v  -0.0124633 -0.584116 0.103861
v  0.347645 -0.545177 0.37297
v  0.000468865 -0.506354 0.746243
v  0.461283 -0.307167 0.651432
v  -0.352031 -0.543486 0.358471
v  -0.460568 -0.307227 0.651274
v  0.513628 0.0370655 -0.532864
v  0.638166 0.169655 -0.356932
v  0.677751 -0.0918374 -0.201947
v  0.641917 -0.314728 -0.526989
v  0.685401 -0.311498 -0.223571
v  0.607344 0.224872 0.187966
v  0.336335 0.393275 0.422653
v  0.451347 0.2725 0.173779
v  0.278739 0.415508 0.0256462
v  -0.606246 0.224836 0.187527
v  -0.45032 0.272376 0.173535
v  -0.334016 0.394027 0.419833
v  -0.269067 0.41854 0.0475039
v  -0.709444 -0.404843 0.00138021
v  -0.663106 -0.483166 -0.553254
v  -0.638497 0.169037 -0.353266
v  -0.515111 0.0356498 -0.526936
v  -0.677804 -0.0937114 -0.202152
v  -0.641339 -0.301311 -0.526055
v  -0.686202 -0.312625 -0.221392
v  -0.215772 -0.397364 -0.884295
v  0.486192 -0.494737 -0.841169
v  0.000468865 0.470676 0.324342
v  0.000468865 0.218989 0.999985
v  0.414928 -0.378925 0.925584
v  0.315218 0.148088 0.839049
v  -0.413511 -0.375131 0.925114
v  -0.314674 0.14632 0.838667
v  0.000468865 0.385364 0.872732
v  -0.286644 0.325987 0.814812
v  0.279049 0.335823 0.819644
v  0.515168 0.281255 -0.0638616
v  -0.514031 0.281419 -0.0643752
v  -0.603046 -0.524002 0.0925319
v  0.606167 -0.52612 0.102247
v  0.398578 -0.45761 0.6853
v  -0.397049 -0.460514 0.681444
v  0.000468865 -0.434518 0.960563
v  0.107739 -0.227585 0.970008
v  -0.108165 -0.230985 0.970133
v  0.253878 0.431479 0.651905
v  0.209747 0.486398 0.41529
v  0.197935 0.508316 0.730916
v  -0.208977 0.486297 0.415853
v  -0.302061 0.396726 0.634674
v  0.000468865 0.533845 0.442701
v  0.29749 0.393742 -0.334128
v  0.000468865 0.445029 -0.185432
v  -0.295377 0.394376 -0.332709
v  -0.202935 0.510102 0.7408
v  0.651053 -0.422602 0.0810518
v  -0.65001 -0.422878 0.0815237
v  0.563427 -0.127013 -0.742114
v  0.581924 0.119123 0.512244
v  0.371342 0.263501 0.674886
v  0.480762 0.319821 0.528571
v  -0.369673 0.264179 0.675166
v  -0.581671 0.120105 0.511337
v  -0.479333 0.320652 0.527704
v  -0.563367 -0.127694 -0.74078
v  0.000468865 0.515099 -0.376483
v  0.219414 -0.409268 -0.885064
v  0.673118 -0.571929 0.500146
v  -0.674637 -0.56833 0.499521
v  0.000468865 -0.344506 -0.999985
v  0.000468865 -0.280673 0.909047
v  0.000468865 0.444821 0.879834
v  0.000468865 0.545025 0.731142

# 120 UV coordinates
vt 0.239655 0.669683 0
vt 0.266565 0.757878 0
vt 0.190792 0.727223 0
vt 0.244674 0.32814 0
vt 0.19371 0.271128 0
vt 0.268708 0.240349 0
vt 0.427478 0.0187418 0
vt 0.315207 0.0539169 0
vt 0.346758 0.00195313 0
vt 0.427928 0.98227 0
vt 0.346845 0.998047 0
vt 0.322881 0.943445 0
vt 0.359332 0.657626 0
vt 0.45936 0.49952 0
vt 0.484324 0.636819 0
vt 0.608717 0.499814 0
vt 0.56316 0.403343 0
vt 0.701509 0.192407 0
vt 0.657061 0.386462 0
vt 0.595437 0.327077 0
vt 0.69961 0.808182 0
vt 0.594059 0.671722 0
vt 0.654175 0.607285 0
vt 0.55911 0.84442 0
vt 0.603103 0.769875 0
vt 0.396578 0.799153 0
vt 0.360877 0.768554 0
vt 0.381351 0.696755 0
vt 0.560651 0.155128 0
vt 0.604202 0.230583 0
vt 0.362941 0.22999 0
vt 0.398348 0.199852 0
vt 0.383053 0.302418 0
vt 0.326683 0.272766 0
vt 0.276999 0.347808 0
vt 0.271771 0.650228 0
vt 0.323885 0.72544 0
vt 0.329296 0.497101 0
vt 0.257929 0.56786 0
vt 0.146913 0.497411 0
vt 0.173603 0.64246 0
vt 0.265362 0.429608 0
vt 0.180615 0.354745 0
vt 0.513686 0.745893 0
vt 0.454701 0.783307 0
vt 0.416746 0.727367 0
vt 0.491488 0.670074 0
vt 0.415687 0.677554 0
vt 0.30486 0.809922 0
vt 0.222126 0.867633 0
vt 0.307177 0.847103 0
vt 0.356349 0.906316 0
vt 0.306431 0.188283 0
vt 0.308214 0.151146 0
vt 0.223273 0.131223 0
vt 0.349635 0.0900911 0
vt 0.361435 0.338391 0
vt 0.491113 0.364623 0
vt 0.455513 0.215788 0
vt 0.513747 0.253874 0
vt 0.418662 0.271566 0
vt 0.494005 0.328465 0
vt 0.417203 0.320739 0
vt 0.612587 0.43801 0
vt 0.560988 0.596769 0
vt 0.238004 0.965016 0
vt 0.00590621 0.741296 0
vt 0.113087 0.592552 0
vt 0.102095 0.747356 0
vt 0.236361 0.0346665 0
vt 0.124599 0.403135 0
vt 0.00195313 0.26618 0
vt 0.10204 0.254496 0
vt 0.0273954 0.181516 0
vt 0.101511 0.202342 0
vt 0.100981 0.802451 0
vt 0.0307853 0.823955 0
vt 0.378844 0.8381 0
vt 0.38047 0.160838 0
vt 0.334301 0.37056 0
vt 0.328883 0.628507 0
vt 0.176106 0.594199 0
vt 0.184291 0.403786 0
vt 0.0795448 0.494811 0
vt 0.0418768 0.584209 0
vt 0.0571244 0.419047 0
vt 0.1439 0.851022 0
vt 0.206657 0.904347 0
vt 0.112559 0.862136 0
vt 0.207009 0.095719 0
vt 0.153292 0.159768 0
vt 0.179128 0.0460968 0
vt 0.47899 0.870067 0
vt 0.451119 0.965173 0
vt 0.480188 0.128701 0
vt 0.451723 0.0347199 0
vt 0.107485 0.142576 0
vt 0.181992 0.955689 0
vt 0.335355 0.656696 0
vt 0.338722 0.342387 0
vt 0.552526 0.685466 0
vt 0.21517 0.767758 0
vt 0.149952 0.796895 0
vt 0.204518 0.816778 0
vt 0.149245 0.20329 0
vt 0.217042 0.230483 0
vt 0.20505 0.182326 0
vt 0.553546 0.31454 0
vt 0.529678 0.050116 0
vt 0.52841 0.949361 0
vt 0.609237 0.55991 0
vt 0.242396 0.628621 0
vt 0.247987 0.368421 0
vt 0.674905 0.500379 0
vt 0.00799708 0.568981 0
vt 0.0404814 0.478308 0
vt 0.0332916 0.158981 0
vt 0.0372964 0.846288 0
vt 0.0836677 0.902907 0
vt 0.0800725 0.100075 0

# 108 vertex normals
vn 0.820739 0.174766 0.543916
vn 0.991029 0.133109 0.0119983
vn 0.796022 0.079471 0.600028
vn -0.821824 0.177088 0.541521
vn -0.79605 0.0793756 0.600003
vn -0.991049 0.132991 0.011648
vn -0.154917 0.884458 -0.440154
vn -0.525903 0.846482 0.0830339
vn 0.00651518 0.995202 0.0976224
vn 0.567287 0.82248 -0.0413797
vn 0.502079 -0.863631 -0.04537
vn -0.0036171 -0.998257 -0.0589146
vn 0.341851 -0.939753 -0.00139143
vn -0.00656776 -0.936597 -0.350348
vn -0.387047 -0.718666 -0.57768
vn 0.00238089 0.551168 -0.834391
vn -0.235804 0.0205521 -0.971583
vn -0.401677 0.165409 -0.90072
vn 0.399074 0.162026 -0.902489
vn 0.237219 0.020256 -0.971245
vn 0.487014 0.829928 -0.272096
vn 0.670916 0.52341 -0.525275
vn 0.925485 0.318353 0.205253
vn 0.98431 0.117784 0.131382
vn 0.933915 0.228903 0.274601
vn -0.487907 0.829311 -0.272378
vn -0.673227 0.523027 -0.522694
vn -0.984116 0.11874 0.131968
vn -0.924311 0.31867 0.209999
vn -0.92799 0.241282 0.283932
vn -0.97705 0.212862 -0.00796304
vn -0.982624 0.0215898 -0.184347
vn 0.98299 0.0205745 -0.182501
vn 0.977095 0.212637 -0.00840909
vn -0.00219818 -0.999913 0.0130383
vn 0.0215455 -0.993978 0.107439
vn -0.00166233 -0.980756 0.19523
vn 0.819808 0.0554395 0.569949
vn -0.0255559 -0.994127 0.105161
vn -0.81895 0.0533742 0.571378
vn 0.916823 0.232887 -0.324344
vn 0.815566 0.507422 -0.278162
vn 0.878417 -0.0456187 -0.475712
vn 0.955214 0.190893 -0.22611
vn 0.957433 0.113515 -0.265397
vn 0.863201 0.504235 -0.0251283
vn 0.463446 0.885691 -0.0277298
vn 0.506347 0.862241 -0.0124069
vn 0.42328 0.905997 -0.00197406
vn -0.862824 0.504797 -0.0267227
vn -0.502516 0.864451 -0.0142161
vn -0.454808 0.889494 -0.0441571
vn -0.449353 0.89295 -0.0268778
vn -0.415053 -0.909082 -0.03606
vn -0.392594 -0.919679 -0.00774569
vn -0.816218 0.507133 -0.276776
vn -0.915572 0.2362 -0.32548
vn -0.878885 -0.0430265 -0.47509
vn -0.948953 0.188851 -0.252634
vn -0.966633 0.128165 -0.221799
vn -0.250029 -0.187777 -0.949855
vn 0.384858 -0.73378 -0.559867
vn 0.0171104 0.99868 0.0484356
vn -0.00103365 0.174098 0.984728
vn 0.582543 -0.100993 0.806501
vn 0.749945 0.182787 0.635745
vn -0.584018 -0.104406 0.804998
vn -0.75107 0.182834 0.634401
vn -0.0157062 0.469637 0.88272
vn -0.556829 0.409088 0.722903
vn 0.557163 0.433605 0.708206
vn 0.561222 0.827252 -0.0261476
vn -0.559933 0.828185 -0.0241968
vn -0.223296 -0.962804 -0.152145
vn 0.209835 -0.967709 -0.139674
vn 0.21758 -0.903967 0.368108
vn -0.215721 -0.906582 0.36273
vn -0.00248301 -0.767911 0.640552
vn -0.0540231 -0.0601263 0.996728
vn 0.0524078 -0.0601314 0.996814
vn 0.769091 0.625351 0.13204
vn 0.424973 0.878885 -0.216701
vn 0.395483 0.887534 0.236384
vn -0.3731 0.916333 -0.145362
vn -0.648315 0.758122 0.0702674
vn -0.102753 0.987013 -0.123477
vn 0.372993 0.927775 -0.0105283
vn 0.0665617 0.995693 -0.0645434
vn -0.370611 0.92873 -0.0104001
vn -0.464723 0.855227 0.22939
vn 0.990535 0.0577622 0.124513
vn -0.98885 0.0700179 0.131428
vn 0.877715 0.262806 -0.400686
vn 0.876565 0.199886 0.437813
vn 0.719287 0.529146 0.450145
vn 0.671395 0.689899 0.270682
vn -0.724067 0.500965 0.474089
vn -0.876138 0.201539 0.437909
vn -0.668311 0.693833 0.268245
vn -0.875639 0.266027 -0.403096
vn 0.000429643 0.993251 -0.115983
vn 0.24781 -0.200731 -0.947785
vn 0.359896 -0.841908 0.402075
vn -0.352546 -0.849212 0.393128
vn -0.00207985 -0.0646658 -0.997905
vn 0.00152855 -0.0602141 0.998184
vn 0.00169593 0.582971 0.812491
vn 0.00928532 0.979844 0.199551

# Mesh 'SnakeTailw_Low_SnakeTailw_Low' with 212 faces
g SnakeTailw_Low_SnakeTailw_Low
usemtl SnakeTailw_Low
f  1/1/1 2/2/2 3/3/3
f  4/4/4 5/5/5 6/6/6
f  7/7/7 8/8/8 9/9/9
f  7/10/7 9/11/9 10/12/10
f  11/13/11 12/14/12 13/15/13
f  14/16/14 12/14/12 15/17/15
f  16/18/16 17/19/17 18/20/18
f  16/21/16 19/22/19 20/23/20
f  21/24/21 22/25/22 16/21/16
f  23/26/23 24/27/24 25/28/25
f  26/29/26 16/18/16 27/30/27
f  28/31/28 29/32/29 30/33/30
f  31/34/31 32/35/32 6/6/6
f  33/36/33 34/37/34 2/2/2
f  35/38/35 36/39/36 37/40/37
f  38/41/38 1/1/1 3/3/3
f  39/42/39 35/38/35 37/40/37
f  40/43/40 5/5/5 4/4/4
f  41/44/41 42/45/42 43/46/43
f  44/47/44 41/44/41 45/48/45
f  23/26/23 46/49/46 24/27/24
f  47/50/47 48/51/48 49/52/49
f  50/53/50 29/32/29 28/31/28
f  51/54/51 52/55/52 53/56/53
f  54/57/54 55/58/55 12/14/12
f  56/59/56 57/60/57 58/61/58
f  15/17/15 18/20/18 17/19/17
f  59/62/59 60/63/60 57/60/57
f  15/17/15 61/64/61 14/16/14
f  20/23/20 19/22/19 62/65/62
f  63/66/63 47/50/47 49/52/49
f  64/67/64 65/68/65 66/69/66
f  53/56/53 52/55/52 63/70/63
f  67/71/67 64/72/64 68/73/68
f  64/72/64 69/74/69 70/75/70
f  64/67/64 71/76/71 69/77/69
f  22/25/22 21/24/21 42/45/42
f  48/51/48 72/78/72 49/52/49
f  56/59/56 26/29/26 27/30/27
f  53/56/53 73/79/73 51/54/51
f  54/57/54 12/14/12 74/80/74
f  75/81/75 12/14/12 11/13/11
f  36/39/36 76/82/76 37/40/37
f  38/41/38 66/69/66 65/68/65
f  37/40/37 77/83/77 39/42/39
f  68/73/68 40/43/40 67/71/67
f  78/84/78 76/82/76 65/68/65
f  64/67/64 79/85/79 65/68/65
f  77/83/77 78/84/78 67/71/67
f  67/71/67 80/86/80 64/72/64
f  42/45/42 21/24/21 72/78/72
f  23/26/23 25/28/25 42/45/42
f  73/79/73 26/29/26 56/59/56
f  30/33/30 29/32/29 56/59/56
f  81/87/81 82/88/82 83/89/83
f  66/69/66 38/41/38 3/3/3
f  84/90/84 85/91/85 86/92/86
f  40/43/40 68/73/68 5/5/5
f  49/52/49 72/78/72 87/93/87
f  87/93/87 88/94/88 49/52/49
f  89/95/89 73/79/73 53/56/53
f  88/96/88 89/95/89 53/56/53
f  35/38/35 75/81/75 36/39/36
f  12/14/12 75/81/75 35/38/35
f  74/80/74 35/38/35 39/42/39
f  12/14/12 35/38/35 74/80/74
f  90/97/90 86/92/86 85/91/85
f  82/88/82 86/98/86 83/89/83
f  25/28/25 34/37/34 91/99/91
f  91/99/91 34/37/34 33/36/33
f  92/100/92 31/34/31 30/33/30
f  31/34/31 92/100/92 32/35/32
f  8/8/8 63/70/63 9/9/9
f  63/66/63 10/12/10 9/11/9
f  44/47/44 62/65/62 93/101/93
f  62/65/62 13/15/13 12/14/12
f  66/69/66 94/102/94 95/103/95
f  46/49/46 96/104/96 94/102/94
f  68/73/68 97/105/97 98/106/98
f  98/106/98 99/107/99 50/53/50
f  44/47/44 93/101/93 41/44/41
f  19/22/19 16/21/16 22/25/22
f  57/60/57 100/108/100 59/62/59
f  27/30/27 16/18/16 18/20/18
f  46/49/46 2/2/2 24/27/24
f  46/49/46 94/102/94 2/2/2
f  6/6/6 50/53/50 28/31/28
f  50/53/50 6/6/6 98/106/98
f  41/44/41 93/101/93 22/25/22
f  41/44/41 22/25/22 42/45/42
f  100/108/100 57/60/57 27/30/27
f  56/59/56 27/30/27 57/60/57
f  94/102/94 66/69/66 3/3/3
f  2/2/2 94/102/94 3/3/3
f  5/5/5 68/73/68 98/106/98
f  98/106/98 6/6/6 5/5/5
f  11/13/11 25/28/25 91/99/91
f  11/13/11 44/47/44 45/48/45
f  54/57/54 92/100/92 30/33/30
f  60/63/60 55/58/55 54/57/54
f  16/18/16 26/29/26 101/109/101
f  21/24/21 16/21/16 101/110/101
f  95/103/95 71/76/71 66/69/66
f  66/69/66 71/76/71 64/67/64
f  70/75/70 97/105/97 68/73/68
f  64/72/64 70/75/70 68/73/68
f  89/95/89 88/96/88 101/109/101
f  88/94/88 87/93/87 101/110/101
f  24/27/24 34/37/34 25/28/25
f  24/27/24 2/2/2 34/37/34
f  31/34/31 28/31/28 30/33/30
f  6/6/6 28/31/28 31/34/31
f  102/111/102 62/65/62 14/16/14
f  14/16/14 62/65/62 12/14/12
f  19/22/19 22/25/22 93/101/93
f  19/22/19 93/101/93 62/65/62
f  100/108/100 27/30/27 18/20/18
f  15/17/15 100/108/100 18/20/18
f  63/66/63 86/98/86 82/88/82
f  86/92/86 63/70/63 84/90/84
f  36/39/36 103/112/103 76/82/76
f  36/39/36 75/81/75 103/112/103
f  39/42/39 77/83/77 104/113/104
f  104/113/104 74/80/74 39/42/39
f  105/114/105 102/111/102 14/16/14
f  105/114/105 16/21/16 20/23/20
f  61/64/61 105/114/105 14/16/14
f  17/19/17 16/18/16 105/114/105
f  96/104/96 46/49/46 47/50/47
f  95/103/95 47/50/47 81/87/81
f  52/55/52 50/53/50 99/107/99
f  52/55/52 97/105/97 85/91/85
f  100/108/100 15/17/15 59/62/59
f  55/58/55 15/17/15 12/14/12
f  103/112/103 1/1/1 38/41/38
f  103/112/103 75/81/75 33/36/33
f  40/43/40 4/4/4 104/113/104
f  74/80/74 104/113/104 32/35/32
f  63/66/63 49/52/49 10/12/10
f  88/94/88 10/12/10 49/52/49
f  63/70/63 8/8/8 53/56/53
f  7/7/7 53/56/53 8/8/8
f  76/82/76 103/112/103 38/41/38
f  76/82/76 38/41/38 65/68/65
f  77/83/77 40/43/40 104/113/104
f  67/71/67 40/43/40 77/83/77
f  87/93/87 21/24/21 101/110/101
f  72/78/72 21/24/21 87/93/87
f  26/29/26 89/95/89 101/109/101
f  26/29/26 73/79/73 89/95/89
f  13/15/13 44/47/44 11/13/11
f  62/65/62 44/47/44 13/15/13
f  95/103/95 96/104/96 47/50/47
f  96/104/96 95/103/95 94/102/94
f  99/107/99 97/105/97 52/55/52
f  97/105/97 99/107/99 98/106/98
f  79/85/79 78/84/78 65/68/65
f  64/67/64 106/115/106 79/85/79
f  80/86/80 67/71/67 78/84/78
f  106/116/106 64/72/64 80/86/80
f  45/48/45 41/44/41 43/46/43
f  25/28/25 11/13/11 45/48/45
f  58/61/58 57/60/57 60/63/60
f  54/57/54 30/33/30 60/63/60
f  47/50/47 63/66/63 82/88/82
f  47/50/47 82/88/82 81/87/81
f  52/55/52 84/90/84 63/70/63
f  52/55/52 85/91/85 84/90/84
f  79/85/79 106/116/106 78/84/78
f  106/116/106 80/86/80 78/84/78
f  1/1/1 33/36/33 2/2/2
f  33/36/33 1/1/1 103/112/103
f  4/4/4 6/6/6 32/35/32
f  4/4/4 32/35/32 104/113/104
f  72/78/72 46/49/46 23/26/23
f  23/26/23 42/45/42 72/78/72
f  73/79/73 29/32/29 50/53/50
f  56/59/56 29/32/29 73/79/73
f  71/76/71 81/87/81 83/89/83
f  81/87/81 71/76/71 95/103/95
f  70/75/70 90/97/90 85/91/85
f  70/75/70 85/91/85 97/105/97
f  78/84/78 77/83/77 37/40/37
f  78/84/78 37/40/37 76/82/76
f  72/78/72 48/51/48 46/49/46
f  48/51/48 47/50/47 46/49/46
f  51/54/51 73/79/73 50/53/50
f  52/55/52 51/54/51 50/53/50
f  60/63/60 59/62/59 55/58/55
f  55/58/55 59/62/59 15/17/15
f  107/117/107 90/97/90 70/75/70
f  107/118/107 71/76/71 83/89/83
f  11/13/11 91/99/91 75/81/75
f  33/36/33 75/81/75 91/99/91
f  54/57/54 74/80/74 92/100/92
f  92/100/92 74/80/74 32/35/32
f  83/89/83 108/119/108 107/118/107
f  83/89/83 86/98/86 108/119/108
f  108/120/108 90/97/90 107/117/107
f  86/92/86 90/97/90 108/120/108
f  7/7/7 88/96/88 53/56/53
f  88/94/88 7/10/7 10/12/10
f  25/28/25 43/46/43 42/45/42
f  43/46/43 25/28/25 45/48/45
f  30/33/30 56/59/56 58/61/58
f  30/33/30 58/61/58 60/63/60
f  107/117/107 70/75/70 69/74/69
f  71/76/71 107/118/107 69/77/69
f  61/64/61 17/19/17 105/114/105
f  15/17/15 17/19/17 61/64/61
f  105/114/105 20/23/20 102/111/102
f  20/23/20 62/65/62 102/111/102

