# File produced by Open Asset Import Library (http://www.assimp.sf.net)
# (assimp v3.1.193236683)

mtllib Untitled.mtl

# 80 vertex positions
v  2.96607 -3.15509 -14.9114
v  2.96607 3.15509 -14.9114
v  8.44665 3.15509 -12.6413
v  8.44665 -3.15509 -12.6413
v  12.6413 3.15509 -8.44665
v  12.6413 -3.15509 -8.44665
v  -13.295 3.15509 2.64452
v  -14.9114 3.15509 2.96606
v  -12.6413 3.15509 8.44664
v  -11.271 3.15509 7.531
v  14.9114 3.15509 -2.96607
v  14.9114 1.63002 -2.54874
v  14.9114 -3.15509 -2.96607
v  7.531 3.15509 11.2709
v  8.44665 3.15509 12.6413
v  12.6413 3.15509 8.44665
v  11.2709 3.15509 7.531
v  14.9114 1.63002 2.54873
v  14.9114 -3.15509 2.96607
v  2.64454 3.15509 -13.295
v  2.69504 1.63002 -14.9114
v  2.40289 1.63002 -13.295
v  14.9114 3.15509 2.96607
v  12.6413 -3.15509 8.44665
v  -13.295 1.63002 -2.27246
v  -14.9114 1.63002 -2.54875
v  -14.9114 1.63002 2.54872
v  -13.295 1.63002 2.27243
v  8.44665 -3.15509 12.6413
v  2.64453 3.15509 13.295
v  2.96607 3.15509 14.9114
v  2.69503 1.63002 14.9114
v  2.96607 -3.15509 14.9114
v  11.2709 3.15509 -7.53101
v  7.53101 3.15509 -11.2709
v  -2.69504 1.63002 14.9114
v  -2.96608 -3.15509 14.9114
v  -2.69502 1.63002 -14.9114
v  -2.40287 1.63002 -13.295
v  -2.96608 3.15509 14.9114
v  -8.44666 3.15509 12.6413
v  -8.44666 -3.15509 12.6413
v  -13.295 3.15509 -2.64455
v  -14.9114 3.15509 -2.96609
v  -12.6413 -3.15509 8.44664
v  -2.40289 1.63002 13.295
v  2.40288 1.63002 13.295
v  -14.9114 -3.15509 2.96606
v  13.295 3.15509 -2.64454
v  -14.9114 -3.15509 -2.96608
v  -7.53099 3.15509 -11.271
v  -8.44664 3.15509 -12.6413
v  -12.6413 3.15509 -8.44667
v  -11.2709 3.15509 -7.53102
v  -12.6413 -3.15509 -8.44667
v  -2.64454 3.15509 13.295
v  -8.44664 -3.15509 -12.6413
v  13.295 1.63002 2.27244
v  13.295 1.63002 -2.27245
v  -2.96605 3.15509 -14.9114
v  -2.96605 -3.15509 -14.9114
v  -2.64452 3.15509 -13.295
v  -2.64452 -1.06454 -13.295
v  -7.53099 -1.06454 -11.271
v  13.295 3.15509 2.64453
v  -7.53101 3.15509 11.2709
v  13.295 -1.06453 2.64454
v  -2.64454 -1.06453 13.295
v  2.64453 -1.06453 13.295
v  7.531 -1.06453 11.2709
v  -11.271 -1.06453 7.531
v  -7.53101 -1.06453 11.2709
v  -13.295 -1.06453 -2.64455
v  -13.295 -1.06453 2.64453
v  11.2709 -1.06454 -7.531
v  7.53101 -1.06454 -11.2709
v  2.64454 -1.06454 -13.295
v  -11.2709 -1.06454 -7.53102
v  13.295 -1.06453 -2.64454
v  11.2709 -1.06453 7.53101

# 120 UV coordinates
vt 0.51274 0.473435 0
vt 0.603543 0.510509 0
vt 0.607034 0.565583 0
vt 0.512133 0.575856 0
vt 0.626209 0.647294 0
vt 0.532207 0.672834 0
vt 0.934699 0.719639 0
vt 0.909143 0.734325 0
vt 0.878616 0.640978 0
vt 0.904942 0.634044 0
vt 0.966283 0.000179607 0
vt 0.935363 0.0210525 0
vt 0.849511 0.0131976 0
vt 0.876517 0.29662 0
vt 0.853637 0.290355 0
vt 0.876206 0.208667 0
vt 0.898524 0.216281 0
vt 0.899817 0.120276 0
vt 0.826987 0.0615581 0
vt 0.611149 0.507655 0
vt 0.586695 0.492074 0
vt 0.616907 0.48899 0
vt 0.903167 0.153562 0
vt 0.769937 0.169034 0
vt 0.67261 0.144081 0
vt 0.63756 0.130208 0
vt 0.674557 0.0188702 0
vt 0.709671 0.0435036 0
vt 0.74361 0.284017 0
vt 0.854348 0.355253 0
vt 0.844133 0.35289 0
vt 0.831163 0.382722 0
vt 0.763807 0.40491 0
vt 0.651006 0.639809 0
vt 0.628588 0.561228 0
vt 0.840849 0.474814 0
vt 0.76398 0.448653 0
vt 0.572925 0.386946 0
vt 0.609273 0.389928 0
vt 0.861357 0.497664 0
vt 0.862168 0.554434 0
vt 0.759308 0.560875 0
vt 0.65398 0.162516 0
vt 0.643364 0.160447 0
vt 0.777796 0.664942 0
vt 0.873904 0.470606 0
vt 0.867077 0.387578 0
vt 0.707465 0.000179607 0
vt 0.585955 0.0148013 0
vt 0.68193 0.720182 0
vt 0.65811 0.734877 0
vt 0.562973 0.06539 0
vt 0.618243 0.308171 0
vt 0.594682 0.302317 0
vt 0.616221 0.217749 0
vt 0.639362 0.225266 0
vt 0.504496 0.177899 0
vt 0.869499 0.495061 0
vt 0.478439 0.2989 0
vt 0.933415 0.133901 0
vt 0.968875 0.0450006 0
vt 0.578422 0.365014 0
vt 0.503772 0.428821 0
vt 0.604234 0.365205 0
vt 0.652467 0.418684 0
vt 0.686073 0.331156 0
vt 0.91337 0.155668 0
vt 0.884703 0.550902 0
vt 0.973622 0.141708 0
vt 0.909091 0.453001 0
vt 0.910365 0.407488 0
vt 0.943501 0.319984 0
vt 0.973563 0.61498 0
vt 0.949341 0.529988 0
vt 0.716331 0.14748 0
vt 0.743251 0.102741 0
vt 0.715861 0.61954 0
vt 0.690458 0.5391 0
vt 0.99982 0.698184 0
vt 0.650142 0.464873 0
vt 0.710218 0.240608 0
vt 0.99982 0.0989679 0
vt 0.743251 0.697852 0
vt 0.967278 0.231746 0
vt 0.974094 0.00748172 0
vt 0.560312 0.764773 0
vt 0.715669 0.00771751 0
vt 0.804792 0.763041 0
vt 0.032614 0.812168 0
vt 0.000179607 0.733864 0
vt 0.170849 0.904534 0
vt 0.0925451 0.872099 0
vt 0.426274 0.733864 0
vt 0.393839 0.812168 0
vt 0.393839 0.570805 0
vt 0.426274 0.649109 0
vt 0.032614 0.570805 0
vt 0.0925451 0.510874 0
vt 0.170849 0.478439 0
vt 0.255604 0.478439 0
vt 0.000179662 0.649109 0
vt 0.333908 0.510874 0
vt 0.333908 0.872099 0
vt 0.255604 0.904534 0
vt 0.0365575 0.374484 0
vt 0.000179607 0.28666 0
vt 0.000179717 0.1916 0
vt 0.0365579 0.103775 0
vt 0.441702 0.103775 0
vt 0.47808 0.1916 0
vt 0.47808 0.28666 0
vt 0.441702 0.374484 0
vt 0.103775 0.0365578 0
vt 0.1916 0.000179607 0
vt 0.28666 0.000179607 0
vt 0.374484 0.0365576 0
vt 0.374484 0.441702 0
vt 0.28666 0.47808 0
vt 0.1916 0.47808 0
vt 0.103775 0.441702 0

# 72 vertex normals
vn 0.145575 -0.665709 -0.731874
vn -0.333941 0.610781 -0.717934
vn 0.41457 0.665711 -0.620452
vn 0.41457 -0.665711 -0.620451
vn 0.620452 0.665711 -0.41457
vn 0.620452 -0.665711 -0.41457
vn 0.41894 0.645608 -0.638497
vn -0.714766 0.629495 -0.304707
vn -0.620452 0.665711 0.41457
vn 0.546393 0.753774 -0.365076
vn 0.714766 0.629495 0.304706
vn 0.894174 0.340255 0.290998
vn 0.731874 -0.665709 -0.145575
vn -0.365076 0.753773 -0.546393
vn 0.41457 0.665711 0.620451
vn 0.620452 0.665711 0.41457
vn -0.546393 0.753774 -0.365076
vn 0.894174 0.340255 -0.290998
vn 0.731874 -0.665709 0.145575
vn -0.665319 0.62659 0.405875
vn -0.290939 0.309708 -0.905227
vn -0.302233 0.404382 0.863209
vn 0.714766 0.629495 -0.304707
vn 0.620452 -0.665711 0.41457
vn 0.853044 0.429742 0.296037
vn -0.894174 0.340255 0.290998
vn -0.894174 0.340255 -0.290998
vn 0.853044 0.429742 -0.296037
vn 0.41457 -0.665711 0.620452
vn -0.665302 0.626603 -0.405884
vn -0.333941 0.610781 0.717934
vn -0.290939 0.309708 0.905227
vn 0.145575 -0.665709 0.731874
vn -0.546393 0.753774 0.365075
vn -0.365076 0.753774 0.546393
vn 0.290939 0.309708 0.905227
vn -0.145575 -0.665709 0.731874
vn 0.290939 0.309708 -0.905227
vn 0.302233 0.404382 0.863209
vn 0.333941 0.610781 0.717934
vn -0.41457 0.665711 0.620451
vn -0.41457 -0.665711 0.620452
vn 0.41894 0.645609 0.638497
vn -0.714766 0.629495 0.304706
vn -0.620452 -0.665711 0.41457
vn 0.302233 0.404381 -0.86321
vn -0.302233 0.404381 -0.86321
vn -0.731874 -0.665709 0.145575
vn -0.41894 0.645609 0.638497
vn -0.73186 -0.665724 -0.145578
vn 0.365076 0.753774 0.546393
vn -0.41457 0.665711 -0.620452
vn -0.620452 0.665711 -0.41457
vn 0.546393 0.753774 0.365075
vn -0.620452 -0.665711 -0.41457
vn 0.665319 0.62659 -0.405875
vn -0.41457 -0.665711 -0.620451
vn -0.853044 0.429742 -0.296037
vn -0.853044 0.429742 0.296037
vn 0.333941 0.610781 -0.717934
vn -0.145575 -0.665709 -0.731874
vn 0.665302 0.626603 0.405883
vn 0.145575 0.665709 0.731874
vn -0.41894 0.645608 -0.638497
vn 0.365076 0.753773 -0.546393
vn -0.731874 0.665709 -0.145575
vn 0.145575 0.665709 -0.731874
vn -0.145575 0.665709 -0.731874
vn 0.73186 0.665724 0.145578
vn 0.731874 0.665709 -0.145575
vn -0.145575 0.665709 0.731874
vn -0.731874 0.665709 0.145575

# Mesh 'l_l' with 156 faces
g l_l
usemtl ashtray.002
f  1/1/1 2/2/2 3/3/3
f  3/3/3 4/4/4 1/1/1
f  4/4/4 3/3/3 5/5/5
f  5/5/5 6/6/6 4/4/4
f  7/7/7 8/8/8 9/9/9
f  9/9/9 10/10/10 7/7/7
f  11/11/11 12/12/12 13/13/13
f  14/14/14 15/15/15 16/16/16
f  16/16/16 17/17/17 14/14/14
f  13/13/13 12/12/12 18/18/18
f  18/18/18 19/19/19 13/13/13
f  20/20/20 2/2/2 21/21/21
f  21/21/21 22/22/22 20/20/20
f  19/19/19 23/23/23 16/16/16
f  16/16/16 24/24/24 19/19/19
f  25/25/25 26/26/26 27/27/27
f  27/27/27 28/28/28 25/25/25
f  24/24/24 16/16/16 15/15/15
f  15/15/15 29/29/29 24/24/24
f  30/30/30 31/31/31 15/15/15
f  15/15/15 14/14/14 30/30/30
f  31/31/31 32/32/32 33/33/33
f  34/34/34 5/5/5 3/3/3
f  3/3/3 35/35/35 34/34/34
f  33/33/33 32/32/32 36/36/36
f  36/36/36 37/37/37 33/33/33
f  22/22/22 21/21/21 38/38/38
f  38/38/38 39/39/39 22/22/22
f  37/37/37 40/40/40 41/41/41
f  41/41/41 42/42/42 37/37/37
f  43/43/43 44/44/44 26/26/26
f  26/26/26 25/25/25 43/43/43
f  42/42/42 41/41/41 9/9/9
f  9/9/9 45/45/45 42/42/42
f  46/46/46 36/36/36 32/32/32
f  32/32/32 47/47/47 46/46/46
f  8/48/8 27/27/27 48/49/48
f  49/50/49 11/51/11 5/5/5
f  5/5/5 34/34/34 49/50/49
f  48/49/48 27/27/27 26/26/26
f  26/26/26 50/52/50 48/49/48
f  51/53/51 52/54/52 53/55/53
f  53/55/53 54/56/54 51/53/51
f  50/52/50 44/44/44 53/55/53
f  53/55/53 55/57/55 50/52/50
f  56/58/56 40/40/40 36/36/36
f  36/36/36 46/46/46 56/58/56
f  55/57/55 53/55/53 52/54/52
f  52/54/52 57/59/57 55/57/55
f  58/60/58 18/18/18 12/12/12
f  12/12/12 59/61/59 58/60/58
f  60/62/60 38/38/38 61/63/61
f  62/64/62 60/62/60 52/54/52
f  52/54/52 51/53/51 62/64/62
f  63/65/63 62/64/62 51/53/51
f  51/53/51 64/66/15 63/65/63
f  65/67/64 23/23/23 18/18/18
f  18/18/18 58/60/58 65/67/64
f  10/10/10 9/9/9 41/41/41
f  41/41/41 66/68/65 10/10/10
f  1/1/1 61/63/61 38/38/38
f  38/38/38 21/21/21 1/1/1
f  65/67/64 58/60/58 67/69/66
f  68/70/67 46/46/46 47/47/47
f  47/47/47 69/71/68 68/70/67
f  69/71/68 30/30/30 14/14/14
f  14/14/14 70/72/52 69/71/68
f  71/73/5 10/10/10 66/68/65
f  66/68/65 72/74/3 71/73/5
f  56/58/56 46/46/46 68/70/67
f  73/75/69 25/25/25 28/28/28
f  28/28/28 74/76/70 73/75/69
f  75/77/9 34/34/34 35/35/35
f  35/35/35 76/78/41 75/77/9
f  74/79/70 7/7/7 10/10/10
f  10/10/10 71/73/5 74/79/70
f  20/20/20 22/22/22 77/80/71
f  64/66/15 51/53/51 54/56/54
f  54/56/54 78/81/16 64/66/15
f  67/69/66 58/60/58 59/61/59
f  59/61/59 79/82/72 67/69/66
f  43/43/43 25/25/25 73/75/69
f  79/83/72 49/50/49 34/34/34
f  34/34/34 75/77/9 79/83/72
f  77/80/71 22/22/22 39/39/39
f  39/39/39 63/65/63 77/80/71
f  70/72/52 14/14/14 17/17/17
f  17/17/17 80/84/53 70/72/52
f  47/47/47 30/30/30 69/71/68
f  29/29/29 15/15/15 31/31/31
f  31/31/31 33/33/33 29/29/29
f  47/47/47 32/32/32 31/31/31
f  31/31/31 30/30/30 47/47/47
f  72/74/3 66/68/65 56/58/56
f  56/58/56 68/70/67 72/74/3
f  66/68/65 41/41/41 40/40/40
f  40/40/40 56/58/56 66/68/65
f  36/36/36 40/40/40 37/37/37
f  76/78/41 35/35/35 20/20/20
f  20/20/20 77/80/71 76/78/41
f  35/35/35 3/3/3 2/2/2
f  2/2/2 20/20/20 35/35/35
f  21/21/21 2/2/2 1/1/1
f  39/39/39 62/64/62 63/65/63
f  39/39/39 38/38/38 60/62/60
f  60/62/60 62/64/62 39/39/39
f  57/59/57 52/54/52 60/62/60
f  60/62/60 61/63/61 57/59/57
f  80/84/53 17/17/17 65/67/64
f  65/67/64 67/69/66 80/84/53
f  17/17/17 16/16/16 23/23/23
f  23/23/23 65/67/64 17/17/17
f  18/18/18 23/23/23 19/19/19
f  59/61/59 49/85/49 79/82/72
f  59/61/59 12/12/12 11/11/11
f  11/11/11 49/85/49 59/61/59
f  6/6/6 5/5/5 11/51/11
f  11/51/11 13/86/13 6/6/6
f  78/81/16 54/56/54 43/43/43
f  43/43/43 73/75/69 78/81/16
f  26/26/26 44/44/44 50/52/50
f  54/56/54 53/55/53 44/44/44
f  44/44/44 43/43/43 54/56/54
f  28/28/28 7/87/7 74/76/70
f  45/45/45 9/9/9 8/8/8
f  8/8/8 48/88/48 45/45/45
f  28/28/28 27/27/27 8/48/8
f  8/48/8 7/87/7 28/28/28
f  75/89/9 76/90/41 67/91/66
f  67/91/66 79/92/72 75/89/9
f  68/93/67 69/94/68 71/95/5
f  71/95/5 72/96/3 68/93/67
f  63/97/63 64/98/15 78/99/16
f  78/99/16 73/100/69 63/97/63
f  67/91/66 63/97/63 73/100/69
f  73/100/69 69/94/68 67/91/66
f  77/101/71 63/97/63 67/91/66
f  67/91/66 76/90/41 77/101/71
f  73/100/69 74/102/70 71/95/5
f  71/95/5 69/94/68 73/100/69
f  69/94/68 70/103/52 80/104/53
f  80/104/53 67/91/66 69/94/68
f  50/105/50 55/106/55 57/107/57
f  57/107/57 61/108/61 50/105/50
f  19/109/19 24/110/24 29/111/29
f  29/111/29 33/112/33 19/109/19
f  1/113/1 4/114/4 19/109/19
f  19/109/19 61/108/61 1/113/1
f  61/108/61 19/109/19 33/112/33
f  33/112/33 50/105/50 61/108/61
f  4/114/4 6/115/6 13/116/13
f  13/116/13 19/109/19 4/114/4
f  33/112/33 37/117/37 42/118/42
f  42/118/42 45/119/45 33/112/33
f  45/119/45 48/120/48 50/105/50
f  50/105/50 33/112/33 45/119/45

