# File produced by Open Asset Import Library (http://www.assimp.sf.net)
# (assimp v3.1.193236683)

mtllib Untitled.mtl

# 45 vertex positions
v  -0.615551 0.0663791 -0.0186214
v  -0.667744 -0.0230284 0.343693
v  -0.506527 0.268809 0.435968
v  0.635844 -0.0197668 0.350196
v  0.587204 0.0665169 -0.0178509
v  0.478468 0.26877 0.43664
v  0.283392 -0.321219 -0.567834
v  0.704182 -0.324696 -0.522695
v  0.666344 -0.299691 0.199358
v  -0.389261 -0.321047 -0.558362
v  -0.662441 -0.29348 0.245231
v  -0.938765 -0.303333 -0.472307
v  -0.0141974 -0.184624 -0.536932
v  -0.528927 -0.0562277 -0.699528
v  -0.0141974 0.0183897 -0.3637
v  0.501275 -0.0559597 -0.69987
v  0.203029 0.213998 0.148348
v  -0.229563 0.214565 0.148031
v  0.417739 0.0735502 0.790282
v  -0.0141974 0.222515 0.913349
v  -0.0141974 -0.232507 0.999981
v  0.839186 -0.160099 0.1317
v  0.967166 -0.199262 -0.683556
v  -0.445095 0.0730968 0.791521
v  -0.859864 -0.155823 0.142879
v  -0.56052 -0.126721 0.932155
v  0.533122 -0.126931 0.933645
v  0.436679 -0.252111 -0.83275
v  -0.967166 -0.124289 -0.741724
v  -0.465559 -0.248078 -0.831891
v  -0.0141974 -0.378228 0.153817
v  -0.0141974 -0.282684 -0.54553
v  0.862331 0.00255537 -0.730873
v  0.817921 -0.00870275 0.0278473
v  -0.89276 0.00328398 -0.726149
v  -0.845597 -0.00894356 0.0333538
v  -0.397795 0.179275 -0.0882912
v  0.371939 0.180092 -0.0866737
v  -0.28933 0.283639 0.688803
v  0.259793 0.283849 0.68906
v  -0.0141974 0.378228 0.507554
v  -0.0141974 0.267435 0.402707
v  0.579603 0.287362 -0.999981
v  -0.602441 0.281259 -0.996195
v  -0.0141974 0.229511 -0.0774384

# 52 UV coordinates
vt 0.734848 0.444151 0
vt 0.61166 0.444856 0
vt 0.627265 0.355621 0
vt 0.579135 0.00195312 0
vt 0.746996 0.0457588 0
vt 0.560184 0.100602 0
vt 0.357657 0.807231 0
vt 0.227465 0.771922 0
vt 0.189718 0.546756 0
vt 0.573625 0.74768 0
vt 0.565042 0.520425 0
vt 0.703288 0.646083 0
vt 0.961298 0.303535 0
vt 0.913132 0.533478 0
vt 0.879425 0.280375 0
vt 0.989248 0.111521 0
vt 0.687318 0.165515 0
vt 0.701673 0.299343 0
vt 0.375086 0.159845 0
vt 0.47055 0.245675 0
vt 0.372828 0.325428 0
vt 0.128223 0.576896 0
vt 0.153369 0.811693 0
vt 0.541463 0.333801 0
vt 0.638365 0.507581 0
vt 0.502493 0.364848 0
vt 0.2586 0.267615 0
vt 0.162164 0.286697 0
vt 0.286535 0.890405 0
vt 0.787167 0.674009 0
vt 0.665316 0.777096 0
vt 0.39374 0.581183 0
vt 0.477712 0.842797 0
vt 0.288334 0.965937 0
vt 0.464473 0.809013 0
vt 0.726508 0.819467 0
vt 0.116894 0.468479 0
vt 0.112916 0.856799 0
vt 0.00448425 0.611429 0
vt 0.0796663 0.604706 0
vt 0.833636 0.677516 0
vt 0.688597 0.497424 0
vt 0.756131 0.365555 0
vt 0.7576 0.131768 0
vt 0.565203 0.28714 0
vt 0.488587 0.168434 0
vt 0.578359 0.222746 0
vt 0.623064 0.222349 0
vt 0.112759 0.998047 0
vt 0.00195313 0.871069 0
vt 0.787749 0.719613 0
vt 0.761442 0.248861 0

# 45 vertex normals
vn -0.210999 0.962155 -0.172442
vn -0.86047 0.330946 0.387383
vn -0.55918 0.828662 0.0252506
vn 0.859511 0.336737 0.38451
vn 0.211756 0.962021 -0.172264
vn 0.557042 0.830127 0.0243518
vn 0.013987 -0.997184 -0.0736725
vn 0.161654 -0.983492 -0.0813095
vn 0.335847 -0.927798 0.162474
vn -0.0341083 -0.997007 -0.0693817
vn -0.312013 -0.933755 0.175357
vn -0.364058 -0.92919 -0.0637715
vn -0.0017491 0.58133 -0.813666
vn 0.252779 0.950254 -0.18199
vn -1.97891e-06 0.900502 -0.434852
vn -0.254345 0.949622 -0.183102
vn 0.127291 0.967279 -0.219471
vn -0.127389 0.967182 -0.219844
vn 0.646244 0.440431 0.623209
vn 0.000483606 0.568923 0.822391
vn 0.00331955 -0.844536 0.535489
vn 0.901785 -0.271594 0.336185
vn 0.782811 -0.511278 -0.354686
vn -0.648899 0.428601 0.628674
vn -0.935887 -0.164883 0.311334
vn -0.637558 -0.497984 0.587819
vn 0.638478 -0.500458 0.584712
vn -0.122749 -0.51684 -0.847236
vn -0.846188 -0.197911 -0.494769
vn 0.0927924 -0.579188 -0.809896
vn -0.00227367 -0.999122 0.0418289
vn -0.00207268 -0.950326 -0.311249
vn 0.300752 0.947995 0.104186
vn 0.709299 0.691514 0.13676
vn -0.220816 0.967938 0.119731
vn -0.684813 0.714534 0.143084
vn -0.165515 0.895573 -0.412981
vn 0.165483 0.895836 -0.412423
vn -0.247929 0.955296 0.161059
vn 0.247664 0.95548 0.160378
vn -0.000422565 0.996153 0.0876301
vn 0.000773372 0.977741 -0.209812
vn 0.101313 0.218894 -0.970475
vn 0.0222228 0.419523 -0.907473
vn 0.00147264 0.951047 -0.309044

# Mesh 'SnakeTailw3_Low_SnakeTailw3_Low' with 86 faces
g SnakeTailw3_Low_SnakeTailw3_Low
usemtl SnakeTailw3_Low
f  1/1/1 2/2/2 3/3/3
f  4/4/4 5/5/5 6/6/6
f  7/7/7 8/8/8 9/9/9
f  10/10/10 11/11/11 12/12/12
f  13/13/13 14/14/14 15/15/15
f  15/15/15 16/16/16 13/13/13
f  5/5/5 17/17/17 6/6/6
f  18/18/18 1/1/1 3/3/3
f  19/19/19 20/20/20 21/21/21
f  22/22/22 9/9/9 23/23/23
f  20/20/20 24/24/24 21/21/21
f  12/12/12 11/11/11 25/25/25
f  11/11/11 26/26/26 24/24/24
f  27/27/27 9/9/9 19/28/19
f  28/29/28 23/23/23 8/8/8
f  23/23/23 9/9/9 8/8/8
f  12/12/12 29/30/29 30/31/30
f  25/25/25 29/30/29 12/12/12
f  7/7/7 9/9/9 31/32/31
f  21/21/21 31/32/31 9/9/9
f  11/11/11 10/10/10 31/32/31
f  31/32/31 21/21/21 11/11/11
f  28/29/28 13/33/13 16/34/16
f  31/32/31 32/35/32 7/7/7
f  13/33/13 30/31/30 14/36/14
f  10/10/10 32/35/32 31/32/31
f  19/19/19 4/4/4 6/6/6
f  4/37/4 19/28/19 9/9/9
f  24/24/24 3/3/3 2/2/2
f  24/24/24 2/2/2 11/11/11
f  5/5/5 16/16/16 15/15/15
f  33/38/33 5/39/5 34/40/34
f  14/14/14 1/1/1 15/15/15
f  35/41/35 36/42/36 1/1/1
f  15/15/15 37/43/37 18/18/18
f  38/44/38 15/15/15 17/17/17
f  24/24/24 20/20/20 39/45/39
f  20/20/20 19/19/19 40/46/40
f  9/9/9 22/22/22 4/37/4
f  4/37/4 34/40/34 5/39/5
f  2/2/2 25/25/25 11/11/11
f  36/42/36 2/2/2 1/1/1
f  20/20/20 40/46/40 41/47/41
f  17/17/17 42/48/42 40/46/40
f  39/45/39 20/20/20 41/47/41
f  42/48/42 18/18/18 39/45/39
f  16/34/16 43/49/43 28/29/28
f  33/38/33 16/50/16 5/39/5
f  44/51/44 14/36/14 30/31/30
f  1/1/1 14/14/14 35/41/35
f  28/29/28 43/49/43 23/23/23
f  16/50/16 33/38/33 43/49/43
f  30/31/30 29/30/29 44/51/44
f  35/41/35 14/36/14 44/51/44
f  33/38/33 34/40/34 23/23/23
f  23/23/23 43/49/43 33/38/33
f  36/42/36 35/41/35 29/30/29
f  35/41/35 44/51/44 29/30/29
f  19/19/19 6/6/6 40/46/40
f  6/6/6 17/17/17 40/46/40
f  3/3/3 24/24/24 39/45/39
f  18/18/18 3/3/3 39/45/39
f  32/35/32 10/10/10 30/31/30
f  12/12/12 30/31/30 10/10/10
f  34/40/34 22/22/22 23/23/23
f  4/37/4 22/22/22 34/40/34
f  25/25/25 36/42/36 29/30/29
f  25/25/25 2/2/2 36/42/36
f  7/7/7 28/29/28 8/8/8
f  28/29/28 7/7/7 32/35/32
f  41/47/41 42/48/42 39/45/39
f  42/48/42 41/47/41 40/46/40
f  42/48/42 17/17/17 45/52/45
f  17/17/17 15/15/15 45/52/45
f  18/18/18 42/48/42 45/52/45
f  45/52/45 15/15/15 18/18/18
f  13/33/13 32/35/32 30/31/30
f  32/35/32 13/33/13 28/29/28
f  5/5/5 15/15/15 38/44/38
f  38/44/38 17/17/17 5/5/5
f  15/15/15 1/1/1 37/43/37
f  37/43/37 1/1/1 18/18/18
f  9/9/9 27/27/27 21/21/21
f  21/21/21 27/27/27 19/19/19
f  26/26/26 11/11/11 21/21/21
f  21/21/21 24/24/24 26/26/26

