# File produced by Open Asset Import Library (http://www.assimp.sf.net)
# (assimp v3.1.193236683)

mtllib snake_tailw1.mtl

# 64 vertex positions
v  0.186991 -0.390569 0.999429
v  0.000296719 0.300069 0.9016
v  0.133641 -0.401889 0.999982
v  -0.196915 -0.390285 0.996699
v  -0.127795 -0.402582 0.998971
v  0.000296719 -0.412843 0.972492
v  -0.118799 -0.42639 0.955371
v  -0.0821647 -0.43504 0.94014
v  0.0827724 -0.434552 0.941061
v  0.118404 -0.430466 0.947894
v  -0.136039 -0.426249 0.954027
v  -0.106259 -0.427595 0.953494
v  0.137133 -0.427159 0.952016
v  -0.451252 -0.423426 0.788263
v  -0.126355 -0.429794 0.948649
v  -0.105056 -0.430827 0.947708
v  -0.0898417 -0.431374 0.946469
v  0.122409 -0.430237 0.948036
v  0.136061 -0.429946 0.94712
v  0.143414 -0.426416 0.952372
v  -0.393046 -0.105059 0.877217
v  0.393572 -0.100017 0.874627
v  0.484488 -0.428011 0.842643
v  0.000296719 -0.463939 0.804089
v  -0.143048 -0.444425 0.920336
v  -0.104052 -0.43023 0.94878
v  -0.12687 -0.457315 0.899599
v  0.127019 -0.457556 0.89943
v  -0.583121 -0.120226 0.13449
v  -0.59621 0.241244 -0.240736
v  -0.766334 -0.246058 -0.1919
v  0.59005 0.253829 -0.237956
v  0.584529 -0.120123 0.133164
v  0.766334 -0.245923 -0.19513
v  0.586699 0.128908 0.253143
v  -0.578594 0.143036 0.192424
v  -0.485407 0.362091 -0.123769
v  -0.413991 0.452313 0.543109
v  0.000296719 0.485649 0.412515
v  0.481109 0.36107 -0.130177
v  0.452877 0.4159 0.522026
v  0.000296719 -0.491132 -0.667774
v  -0.693361 -0.392528 0.0872765
v  0.69405 -0.393156 0.102098
v  0.000296719 0.10386 -0.966851
v  0.495762 -0.189886 -0.969117
v  0.000296719 -0.450608 -0.999982
v  0.464845 0.19661 -0.576021
v  -0.496547 -0.187915 -0.980334
v  -0.437982 0.195014 -0.56161
v  0.000296719 -0.529315 0.149185
v  -0.74705 -0.466105 0.425457
v  0.746583 -0.466048 0.45426
v  0.624792 -0.299132 -0.593951
v  -0.621409 -0.297336 -0.595715
v  0.494052 0.0214729 0.538866
v  0.491026 -0.41963 0.679137
v  -0.522367 0.0324335 0.529739
v  0.121701 0.529315 0.654736
v  0.000296719 0.256162 -0.396692
v  0.000296719 0.393154 0.268214
v  0.000296719 0.400604 -0.159499
v  0.568987 0.202419 0.44963
v  -0.573744 0.199319 0.439573

# 81 UV coordinates
vt 0.774055 0.537452 0
vt 0.998047 0.405429 0
vt 0.779801 0.551549 0
vt 0.490794 0.848543 0
vt 0.629168 0.62499 0
vt 0.648105 0.622104 0
vt 0.686615 0.616571 0
vt 0.723478 0.62817 0
vt 0.649836 0.608028 0
vt 0.660938 0.60365 0
vt 0.714247 0.585756 0
vt 0.74722 0.56439 0
vt 0.645045 0.609201 0
vt 0.653227 0.608078 0
vt 0.748402 0.559342 0
vt 0.552415 0.602462 0
vt 0.647633 0.606722 0
vt 0.653315 0.607191 0
vt 0.00399672 0.0830104 0
vt 0.00401109 0.0830029 0
vt 0.00401498 0.0830104 0
vt 0.00401109 0.0830179 0
vt 0.747267 0.56328 0
vt 0.725323 0.629446 0
vt 0.726766 0.625024 0
vt 0.727015 0.629133 0
vt 0.745567 0.560689 0
vt 0.74771 0.557686 0
vt 0.521212 0.681213 0
vt 0.830328 0.409944 0
vt 0.750905 0.447943 0
vt 0.673687 0.552473 0
vt 0.728875 0.579434 0
vt 0.642354 0.600092 0
vt 0.653401 0.60707 0
vt 0.732011 0.576069 0
vt 0.728733 0.629239 0
vt 0.743907 0.562459 0
vt 0.64613 0.592441 0
vt 0.720269 0.552594 0
vt 0.336878 0.560107 0
vt 0.177318 0.539314 0
vt 0.314126 0.481874 0
vt 0.659562 0.0325675 0
vt 0.695529 0.197969 0
vt 0.586875 0.16491 0
vt 0.770464 0.18894 0
vt 0.307505 0.611738 0
vt 0.191507 0.601314 0
vt 0.354516 0.742312 0
vt 0.282522 0.81422 0
vt 0.0684761 0.856414 0
vt 0.272952 0.953354 0
vt 0.371119 0.256097 0
vt 0.390691 0.502606 0
vt 0.634236 0.252153 0
vt 0.170107 0.22409 0
vt 0.323264 0.0738351 0
vt 0.298577 0.22418 0
vt 0.0932864 0.0920772 0
vt 0.206855 0.337081 0
vt 0.117719 0.449552 0
vt 0.537092 0.405184 0
vt 0.451179 0.556366 0
vt 0.703092 0.315656 0
vt 0.451311 0.136108 0
vt 0.27479 0.395369 0
vt 0.912475 0.216389 0
vt 0.810142 0.290934 0
vt 0.723501 0.407748 0
vt 0.410337 0.654104 0
vt 0.353723 0.862243 0
vt 0.00195309 0.0627924 0
vt 0.0232013 0.261981 0
vt 0.234142 0.7864 0
vt 0.117183 0.712915 0
vt 0.83598 0.229283 0
vt 0.361069 0.667737 0
vt 0.0427961 0.653112 0
vt 0.0140897 0.876804 0
vt 0.526556 0.00195313 0

# 64 vertex normals
vn 0.307669 0.0797199 0.948148
vn 0.0140539 0.411084 0.911489
vn -0.146288 0.0266613 0.988883
vn -0.352398 0.0317724 0.935311
vn 0.12681 0.0363273 0.991262
vn -0.00359363 -0.10825 0.994117
vn -0.122298 -0.894339 0.43035
vn 0.122126 -0.92645 0.356055
vn -0.116236 -0.923942 0.364446
vn 0.0758579 -0.873773 0.480381
vn -0.205848 -0.895924 0.393632
vn -0.0077484 -0.877324 0.479836
vn 0.0489048 -0.815864 0.576172
vn -0.726054 -0.364292 0.583212
vn -0.305379 -0.743977 0.594341
vn -0.011618 -0.875078 0.483843
vn 0 0 1
vn 0.0918305 -0.937687 0.335128
vn 0.0650607 -0.821918 0.565878
vn 0.148364 -0.861015 0.486458
vn -0.641762 0.240069 0.72836
vn 0.664191 0.254051 0.703071
vn 0.5515 -0.64882 0.52429
vn 0.00272106 -0.992962 0.118404
vn -0.246862 -0.844003 0.476149
vn -0.00498103 -0.874856 0.484357
vn -0.0650634 -0.993273 0.0957877
vn 0.0621737 -0.980281 0.187573
vn -0.963433 0.246641 0.104718
vn -0.83509 0.528688 -0.152029
vn -0.945938 -0.29432 -0.136299
vn 0.754135 0.631661 -0.179678
vn 0.965991 0.242062 0.0909248
vn 0.947219 -0.290168 -0.136307
vn 0.985525 0.147841 0.0829682
vn -0.989839 0.135398 0.0434265
vn -0.142096 0.957399 -0.251388
vn -0.538715 0.770894 0.339865
vn 0.0261047 0.979773 -0.198404
vn 0.150532 0.961714 -0.229011
vn 0.583921 0.742359 0.328541
vn 0.000806436 -0.98598 -0.166863
vn -0.716578 -0.663797 -0.214216
vn 0.710362 -0.672869 -0.206478
vn 0.00681476 0.723477 -0.690315
vn 0.74084 0.00404983 -0.671669
vn 0.00920755 -0.449092 -0.893438
vn 0.437849 0.74244 -0.507022
vn -0.737111 0.0256842 -0.675283
vn -0.295483 0.864629 -0.406332
vn -0.000317916 -0.999829 0.0184721
vn -0.496823 -0.862874 0.0928243
vn 0.47573 -0.874167 0.0975355
vn 0.412451 -0.886824 -0.208393
vn -0.411845 -0.887576 -0.20638
vn 0.87768 0.153074 0.454144
vn 0.827149 -0.251192 0.50272
vn -0.897234 0.174239 0.405724
vn 0.0478463 0.933886 0.354356
vn -0.000192126 0.928608 -0.371062
vn 6.97261e-05 0.989127 -0.14706
vn -0.000303406 0.979428 -0.201794
vn 0.948119 0.213566 0.235498
vn -0.926656 0.27614 0.25506

# Mesh 'SnakeTailw1_Low_oPP_SnakeTailw1_Low_oPP' with 126 faces
g SnakeTailw1_Low_oPP_SnakeTailw1_Low_oPP
usemtl SnakeTailw1_Low_oPP
f  1/1/1 2/2/2 3/3/3
f  2/4/2 4/5/4 5/6/5
f  5/6/5 6/7/6 2/4/2
f  2/4/2 6/7/6 3/8/3
f  5/6/5 4/5/4 7/9/7
f  6/7/6 5/6/5 8/10/8
f  3/8/3 6/7/6 9/11/9
f  3/3/3 10/12/10 1/1/1
f  7/9/7 4/5/4 11/13/11
f  5/6/5 7/9/7 12/14/12
f  12/14/12 8/10/8 5/6/5
f  1/1/1 10/12/10 13/15/13
f  11/13/11 4/5/4 14/16/14
f  7/9/7 11/13/11 14/16/14
f  7/9/7 14/16/14 15/17/15
f  12/14/12 7/9/7 16/18/16
f  17/19/17 16/20/16 12/21/12
f  17/19/17 12/21/12 16/22/16
f  13/15/13 10/12/10 18/23/18
f  13/24/13 18/25/18 19/26/19
f  1/1/1 13/15/13 19/27/19
f  1/1/1 19/27/19 20/28/20
f  21/29/21 14/16/14 4/5/4
f  22/30/22 1/1/1 23/31/23
f  6/7/6 8/10/8 24/32/24
f  9/11/9 6/7/6 24/32/24
f  3/8/3 9/11/9 10/33/10
f  14/16/14 25/34/25 15/17/15
f  25/34/25 7/9/7 15/17/15
f  7/9/7 26/35/26 16/18/16
f  26/35/26 8/10/8 12/14/12
f  26/35/26 12/14/12 16/18/16
f  10/33/10 20/28/20 18/36/18
f  13/37/13 19/26/19 18/25/18
f  13/38/13 18/36/18 20/28/20
f  20/28/20 19/27/19 13/38/13
f  7/9/7 27/39/27 26/35/26
f  27/39/27 8/10/8 26/35/26
f  9/11/9 28/40/28 10/33/10
f  25/34/25 27/39/27 7/9/7
f  28/40/28 20/28/20 10/33/10
f  28/40/28 23/31/23 20/28/20
f  23/31/23 1/1/1 20/28/20
f  14/16/14 27/39/27 25/34/25
f  27/39/27 24/32/24 8/10/8
f  24/32/24 28/40/28 9/11/9
f  14/16/14 24/32/24 27/39/27
f  24/32/24 23/31/23 28/40/28
f  29/41/29 30/42/30 31/43/31
f  32/44/32 33/45/33 34/46/34
f  22/30/22 2/2/2 1/1/1
f  32/44/32 35/47/35 33/45/33
f  30/42/30 29/41/29 36/48/36
f  2/4/2 21/29/21 4/5/4
f  37/49/37 38/50/38 39/51/39
f  40/52/40 39/51/39 41/53/41
f  31/43/31 42/54/42 43/55/43
f  34/46/34 44/56/44 42/54/42
f  45/57/45 46/58/46 47/59/47
f  45/57/45 48/60/48 46/58/46
f  49/61/49 45/57/45 47/59/47
f  50/62/50 45/57/45 49/61/49
f  42/54/42 51/63/51 52/64/52
f  51/63/51 42/54/42 53/65/53
f  34/46/34 46/58/46 32/44/32
f  46/58/46 54/66/54 42/54/42
f  49/61/49 31/43/31 30/42/30
f  55/67/55 49/61/49 42/54/42
f  22/30/22 41/68/41 2/2/2
f  56/69/56 22/30/22 57/70/57
f  2/4/2 38/50/38 21/29/21
f  21/29/21 58/71/58 14/16/14
f  38/50/38 2/4/2 59/72/59
f  2/4/2 41/53/41 59/72/59
f  32/73/32 45/57/45 60/74/60
f  61/75/61 39/51/39 40/52/40
f  45/57/45 50/62/50 60/74/60
f  39/51/39 61/75/61 37/49/37
f  40/52/40 62/76/62 61/75/61
f  62/76/62 37/49/37 61/75/61
f  53/65/53 57/70/57 24/32/24
f  53/65/53 56/69/56 57/70/57
f  42/54/42 49/61/49 47/59/47
f  47/59/47 46/58/46 42/54/42
f  52/64/52 24/32/24 14/16/14
f  14/16/14 58/71/58 52/64/52
f  41/68/41 63/77/63 32/44/32
f  63/77/63 41/68/41 22/30/22
f  64/78/64 38/50/38 30/42/30
f  21/29/21 38/50/38 64/78/64
f  53/65/53 42/54/42 44/56/44
f  33/45/33 35/47/35 53/65/53
f  52/64/52 43/55/43 42/54/42
f  52/64/52 36/48/36 29/41/29
f  40/52/40 60/79/60 62/76/62
f  37/49/37 62/76/62 60/79/60
f  35/47/35 32/44/32 63/77/63
f  56/69/56 53/65/53 35/47/35
f  30/42/30 36/48/36 64/78/64
f  58/71/58 36/48/36 52/64/52
f  63/77/63 22/30/22 56/69/56
f  63/77/63 56/69/56 35/47/35
f  21/29/21 64/78/64 58/71/58
f  64/78/64 36/48/36 58/71/58
f  41/53/41 32/80/32 40/52/40
f  40/52/40 32/80/32 60/79/60
f  30/42/30 38/50/38 37/49/37
f  60/79/60 30/42/30 37/49/37
f  52/64/52 51/63/51 24/32/24
f  51/63/51 53/65/53 24/32/24
f  48/60/48 45/57/45 32/73/32
f  46/58/46 48/81/48 32/44/32
f  30/42/30 50/62/50 49/61/49
f  60/79/60 50/62/50 30/42/30
f  22/30/22 23/31/23 57/70/57
f  24/32/24 57/70/57 23/31/23
f  39/51/39 38/50/38 59/72/59
f  41/53/41 39/51/39 59/72/59
f  33/45/33 44/56/44 34/46/34
f  44/56/44 33/45/33 53/65/53
f  43/55/43 29/41/29 31/43/31
f  52/64/52 29/41/29 43/55/43
f  54/66/54 46/58/46 34/46/34
f  34/46/34 42/54/42 54/66/54
f  49/61/49 55/67/55 31/43/31
f  55/67/55 42/54/42 31/43/31

